<svg xmlns="http://www.w3.org/2000/svg" width="10.395" height="18.79" viewBox="0 0 10.395 18.79">
  <g id="Arrow_-_back" data-name="Arrow - back" transform="translate(11.042 17.79) rotate(180)">
    <path id="Trazado_6096" data-name="Trazado 6096" d="M8.395,9.395A1,1,0,0,1,7.688,9.1L-.707.707a1,1,0,0,1,0-1.414,1,1,0,0,1,1.414,0L8.395,6.98,16.083-.707a1,1,0,0,1,1.414,0,1,1,0,0,1,0,1.414L9.1,9.1A1,1,0,0,1,8.395,9.395Z" transform="translate(1.647 16.79) rotate(-90)" fill="#e6484b"/>
  </g>
</svg>
