<svg xmlns="http://www.w3.org/2000/svg" width="19.552" height="15.5" viewBox="0 0 19.552 15.5">
  <g id="Burguer_-_Menu" data-name="Burguer - Menu" transform="translate(0.75 0.75)">
    <path id="Línea_172" data-name="Línea 172" d="M18.052.75H0A.75.75,0,0,1-.75,0,.75.75,0,0,1,0-.75H18.052A.75.75,0,0,1,18.8,0,.75.75,0,0,1,18.052.75Z" transform="translate(0)"/>
    <path id="Línea_173" data-name="Línea 173" d="M15.573.75H0A.75.75,0,0,1-.75,0,.75.75,0,0,1,0-.75H15.573a.75.75,0,0,1,.75.75A.75.75,0,0,1,15.573.75Z" transform="translate(0 7)"/>
    <path id="Línea_174" data-name="Línea 174" d="M7.725.75H0A.75.75,0,0,1-.75,0,.75.75,0,0,1,0-.75H7.725a.75.75,0,0,1,.75.75A.75.75,0,0,1,7.725.75Z" transform="translate(0 14)"/>
  </g>
</svg>
