<svg xmlns="http://www.w3.org/2000/svg" width="11.887" height="21.497" viewBox="0 0 11.887 21.497">
  <path id="Trazado_5465" data-name="Trazado 5465" d="M5799.318,1117.35a.75.75,0,0,1-.75-.75v-8.371h-2.32a.75.75,0,0,1-.75-.75v-3.553a.75.75,0,0,1,.75-.75h2.32V1101.3a5.5,5.5,0,0,1,1.493-4.025,5.3,5.3,0,0,1,3.831-1.425,26.182,26.182,0,0,1,2.839.148.75.75,0,0,1,.654.744v3.181a.75.75,0,0,1-.75.75h-1.882a1.218,1.218,0,0,0-.86.211,1.309,1.309,0,0,0-.15.768v1.521h2.772a.75.75,0,0,1,.744.846l-.457,3.553a.749.749,0,0,1-.744.654h-2.31v8.365a.75.75,0,0,1-.749.75l-3.679.006Zm-2.32-10.621h2.32a.75.75,0,0,1,.75.75v8.37l2.179,0v-8.366a.75.75,0,0,1,.75-.75h2.4l.264-2.053h-2.669a.75.75,0,0,1-.75-.75v-2.271a2.2,2.2,0,0,1,2.511-2.479h1.132v-1.749c-.494-.037-1.2-.074-1.994-.074-2.43,0-3.823,1.44-3.823,3.95v2.623a.75.75,0,0,1-.75.75H5797Z" transform="translate(-5795.498 -1095.853)" fill="#e6484b"/>
</svg>
