<svg xmlns="http://www.w3.org/2000/svg" width="28.575" height="25.583" viewBox="0 0 28.575 25.583">
  <g id="Content_Icon" data-name="Content Icon" transform="translate(0.759 1.061)">
    <g id="Icon_-_Car_-_PikUp" data-name="Icon - Car - PikUp" transform="translate(0)">
      <g id="Grupo_4558" data-name="Grupo 4558" transform="translate(18.825)">
        <line id="Línea_351" data-name="Línea 351" x2="7.03" transform="translate(0 3.41)" fill="none" stroke="#e6484b" stroke-linecap="round" stroke-linejoin="round" stroke-width="1.5"/>
        <path id="Trazado_6288" data-name="Trazado 6288" d="M434.9,821.743l3.41,3.41-3.41,3.41" transform="translate(-430.07 -821.743)" fill="none" stroke="#e6484b" stroke-linecap="round" stroke-linejoin="round" stroke-width="1.5"/>
      </g>
      <g id="Grupo_4561" data-name="Grupo 4561" transform="translate(0 6.718)">
        <g id="Grupo_4559" data-name="Grupo 4559">
          <path id="Trazado_6289" data-name="Trazado 6289" d="M417.314,842.854h0a1.2,1.2,0,0,1-1.182-1.429l.755-3.963h-.856a.791.791,0,0,1-.74-1.071l.461-1.22a.792.792,0,0,1,.741-.512h.821l2.968-4.306a3.283,3.283,0,0,1,2.7-1.418h7.929a3.282,3.282,0,0,1,2.619,1.3l3.333,4.419h.875a.793.793,0,0,1,.741.512l.461,1.22a.791.791,0,0,1-.741,1.071h-.741l.615,4.007a1.2,1.2,0,0,1-1.188,1.385h-.021v1.951a1.184,1.184,0,0,1-1.183,1.184H433.5a1.184,1.184,0,0,1-1.183-1.184v-1.951H421.637v1.951a1.184,1.184,0,0,1-1.183,1.184H418.5a1.184,1.184,0,0,1-1.183-1.184Z" transform="translate(-415.24 -828.935)" fill="none" stroke="#e6484b" stroke-linecap="round" stroke-miterlimit="10" stroke-width="1.5"/>
          <path id="Trazado_6290" data-name="Trazado 6290" d="M420.189,835.955h12.39a.432.432,0,0,0,.387-.677l-2.2-2.982a2.554,2.554,0,0,0-2.056-1h-5a2.533,2.533,0,0,0-2.164,1.163l-1.756,2.852A.434.434,0,0,0,420.189,835.955Z" transform="translate(-414.482 -828.536)" fill="none" stroke="#e6484b" stroke-linecap="round" stroke-miterlimit="10" stroke-width="1.5"/>
        </g>
        <g id="Grupo_4560" data-name="Grupo 4560" transform="translate(4.367 9.448)">
          <path id="Trazado_6291" data-name="Trazado 6291" d="M429.249,838.478l.8-1.076,2.207-.386" transform="translate(-417.238 -837.016)" fill="none" stroke="#e6484b" stroke-miterlimit="10" stroke-width="1.5"/>
          <path id="Trazado_6292" data-name="Trazado 6292" d="M421.982,838.478l-.8-1.076-2.207-.386" transform="translate(-418.975 -837.016)" fill="none" stroke="#e6484b" stroke-miterlimit="10" stroke-width="1.5"/>
        </g>
      </g>
    </g>
  </g>
</svg>
