<svg xmlns="http://www.w3.org/2000/svg" width="26.5" height="26.227" viewBox="0 0 26.5 26.227">
  <g id="Icon_-_Calendar" data-name="Icon - Calendar" transform="translate(0.75 0.75)">
    <path id="Trazado_5306" data-name="Trazado 5306" d="M290.1,419.78H273.317a2.242,2.242,0,0,1-2.235-2.234V402.063a2.242,2.242,0,0,1,2.235-2.234H290.1a2.242,2.242,0,0,1,2.236,2.234v15.482A2.242,2.242,0,0,1,290.1,419.78Z" transform="translate(-271.082 -397.659)" fill="#fff" stroke="#e6484b" stroke-miterlimit="10" stroke-width="1.5"/>
    <line id="Línea_85" data-name="Línea 85" x2="21.256" transform="translate(0.001 7.789)" fill="none" stroke="#e6484b" stroke-miterlimit="10" stroke-width="1.5"/>
    <line id="Línea_86" data-name="Línea 86" y2="4.187" transform="translate(4.589)" fill="none" stroke="#e6484b" stroke-linecap="round" stroke-miterlimit="10" stroke-width="1.5"/>
    <line id="Línea_87" data-name="Línea 87" y2="4.187" transform="translate(16.969)" fill="none" stroke="#e6484b" stroke-linecap="round" stroke-miterlimit="10" stroke-width="1.5"/>
    <line id="Línea_88" data-name="Línea 88" y2="4.187" transform="translate(10.629)" fill="none" stroke="#e6484b" stroke-linecap="round" stroke-miterlimit="10" stroke-width="1.5"/>
    <g id="Grupo_3186" data-name="Grupo 3186" transform="translate(15.708 15.434)">
      <circle id="Elipse_53" data-name="Elipse 53" cx="4.646" cy="4.646" r="4.646" fill="#fff" stroke="#e6484b" stroke-miterlimit="10" stroke-width="1.5"/>
      <path id="Trazado_5307" data-name="Trazado 5307" d="M286.551,411.185v2.969h2.208" transform="translate(-281.905 -409.508)" fill="none" stroke="#e6484b" stroke-linecap="round" stroke-miterlimit="10" stroke-width="1.5"/>
    </g>
    <g id="Grupo_3187" data-name="Grupo 3187" transform="translate(3.578 11.796)">
      <line id="Línea_89" data-name="Línea 89" x1="6.969" transform="translate(1.314 2.437)" fill="none" stroke="#e6484b" stroke-linecap="round" stroke-linejoin="round" stroke-width="1.5"/>
      <path id="Trazado_5308" data-name="Trazado 5308" d="M276.238,412.018l-2.437-2.437,2.437-2.437" transform="translate(-273.802 -407.145)" fill="none" stroke="#e6484b" stroke-linecap="round" stroke-linejoin="round" stroke-width="1.5"/>
    </g>
  </g>
</svg>
