<svg xmlns="http://www.w3.org/2000/svg" width="19.842" height="19.843" viewBox="0 0 19.842 19.843">
  <g id="Grupo_3334" data-name="Grupo 3334" transform="translate(-6017.92 -1096.68)">
    <path id="Elipse_148" data-name="Elipse 148" d="M4.109-.75A4.859,4.859,0,1,1-.75,4.109,4.864,4.864,0,0,1,4.109-.75Zm0,8.217A3.359,3.359,0,1,0,.75,4.109,3.362,3.362,0,0,0,4.109,7.467Z" transform="translate(6023.732 1102.493)" fill="#e6484b"/>
    <path id="Elipse_149" data-name="Elipse 149" d="M.966-.75A1.716,1.716,0,1,1-.75.966,1.718,1.718,0,0,1,.966-.75Zm0,1.932A.216.216,0,1,0,.75.966.216.216,0,0,0,.966,1.182Z" transform="translate(6032.17 1100.34)" fill="#e6484b"/>
    <path id="Trazado_5468" data-name="Trazado 5468" d="M6029.6,1116.523c-.339,0-.689,0-1.068-.007l-.687-.005c-.106,0-1.356.011-1.715.011a13.713,13.713,0,0,1-4.785-.533,5.117,5.117,0,0,1-2.885-2.878,17.663,17.663,0,0,1-.531-5.821l.005-.688-.005-.675a17.915,17.915,0,0,1,.527-5.826,5.118,5.118,0,0,1,2.877-2.884,13.509,13.509,0,0,1,4.757-.538c.339,0,.688,0,1.066.007l.686.005c.106,0,1.358-.011,1.716-.011a13.717,13.717,0,0,1,4.786.533,5.119,5.119,0,0,1,2.883,2.876,17.422,17.422,0,0,1,.531,5.822l0,.69,0,.692a17.389,17.389,0,0,1-.529,5.813,5.113,5.113,0,0,1-2.875,2.879A13.489,13.489,0,0,1,6029.6,1116.523Zm-1.756-1.512h.006l.7.005c.377,0,.72.007,1.054.007a12.8,12.8,0,0,0,4.2-.431,3.625,3.625,0,0,0,2.038-2.04,17.331,17.331,0,0,0,.423-5.245l0-.71,0-.7a17.361,17.361,0,0,0-.424-5.254,3.629,3.629,0,0,0-2.042-2.037,13.053,13.053,0,0,0-4.233-.428c-.36,0-1.7.011-1.709.011h-.012l-.7-.005c-.376,0-.719-.007-1.052-.007a12.822,12.822,0,0,0-4.2.431,3.63,3.63,0,0,0-2.039,2.042,17.556,17.556,0,0,0-.422,5.26l.005.694-.005.7a17.289,17.289,0,0,0,.424,5.252,3.625,3.625,0,0,0,2.043,2.038,13.048,13.048,0,0,0,4.232.428c.361,0,1.7-.011,1.708-.011Z" fill="#e6484b"/>
  </g>
</svg>
