<svg xmlns="http://www.w3.org/2000/svg" xmlns:xlink="http://www.w3.org/1999/xlink" width="415" height="47" viewBox="0 0 415 47">
  <defs>
    <clipPath id="clip-path">
      <rect id="Rectángulo_797" data-name="Rectángulo 797" width="415" height="47" transform="translate(38 733.964)" fill="#fff" stroke="#707070" stroke-width="1"/>
    </clipPath>
    <clipPath id="clip-path-2">
      <rect id="Rectángulo_437" data-name="Rectángulo 437" width="80.37" height="25.317" fill="none"/>
    </clipPath>
    <clipPath id="clip-path-4">
      <rect id="Rectángulo_449" data-name="Rectángulo 449" width="75.248" height="15.951" fill="none"/>
    </clipPath>
    <clipPath id="clip-path-5">
      <rect id="Rectángulo_448" data-name="Rectángulo 448" width="75.472" height="16.339" fill="none"/>
    </clipPath>
    <clipPath id="clip-path-6">
      <rect id="Rectángulo_456" data-name="Rectángulo 456" width="54.067" height="18.866" fill="none"/>
    </clipPath>
    <clipPath id="clip-path-8">
      <rect id="Rectángulo_465" data-name="Rectángulo 465" width="54.797" height="18.674" fill="none"/>
    </clipPath>
    <clipPath id="clip-path-10">
      <path id="Trazado_5502" data-name="Trazado 5502" d="M1119.772,880.656c20.979-5.2,27.811-.769,27.811-.769l-2.694-3.946s-.6-.037-1.676-.037a61.316,61.316,0,0,0-23.441,4.752" transform="translate(-1119.772 -875.904)" fill="none"/>
    </clipPath>
    <linearGradient id="linear-gradient" y1="0.385" x2="1" y2="0.345" gradientUnits="objectBoundingBox">
      <stop offset="0" stop-color="#ffd800"/>
      <stop offset="0.184" stop-color="#fed400"/>
      <stop offset="0.331" stop-color="#fdca03"/>
      <stop offset="0.467" stop-color="#fbb907"/>
      <stop offset="0.594" stop-color="#f9a20d"/>
      <stop offset="0.717" stop-color="#f68314"/>
      <stop offset="0.835" stop-color="#f25d1d"/>
      <stop offset="0.949" stop-color="#ee3128"/>
      <stop offset="1" stop-color="#ec1b2e"/>
    </linearGradient>
    <clipPath id="clip-path-12">
      <rect id="Rectángulo_443" data-name="Rectángulo 443" width="60.121" height="15.726" fill="none"/>
    </clipPath>
    <clipPath id="clip-path-13">
      <rect id="Rectángulo_442" data-name="Rectángulo 442" width="64.48" height="23.655" fill="none"/>
    </clipPath>
    <clipPath id="clip-path-14">
      <rect id="Rectángulo_435" data-name="Rectángulo 435" width="43.838" height="18.323" fill="none"/>
    </clipPath>
    <clipPath id="clip-path-16">
      <rect id="Rectángulo_441" data-name="Rectángulo 441" width="47.491" height="14.775" fill="none"/>
    </clipPath>
  </defs>
  <g id="Logos_-_Agencias" data-name="Logos - Agencias" transform="translate(-38 -733.964)" clip-path="url(#clip-path)">
    <g id="Grupo_5381" data-name="Grupo 5381" transform="translate(256 747.964)">
      <path id="Trazado_6304" data-name="Trazado 6304" d="M69.227,58.547c-.455-.476-.183-1.423.05-2.492l.8-3.631H73.34l.592-2.7h-3.27l.58-2.7H68.161L66.142,56.3a4.91,4.91,0,0,0,.2,3.639c.576,1.086,2.543,2.122,5.033,1.468l.551-2.509C70.238,59.1,69.56,58.891,69.227,58.547ZM43.137,47.023l-1.47,6.7H36.259l1.467-6.7h-3.11L31.473,61.41H34.58l1.085-4.985h5.41L39.986,61.41h3.081l3.147-14.387Zm17.752,3.714A6.226,6.226,0,0,0,58.8,54.566L57.3,61.41h3.084l1.242-5.676a5.39,5.39,0,0,1,1.032-2.67c.706-.7,1.729-.74,2.958-.641l.593-2.7A6.031,6.031,0,0,0,60.889,50.737Zm24.067-1.016H75.332l-.59,2.7h5.583l-6.983,6.387-.567,2.6H82.4l.593-2.7H77.376l7.019-6.417Zm-32.482-.215a6.419,6.419,0,0,0-3.866,1.381c-3.155,2.406-4.722,10.736,2.054,10.736a8.943,8.943,0,0,0,5.067-1.535L54.5,58.077c-1.026.766-6.192,2.433-5.647-1.635h8.075c0-.008,1.029-3.261-.451-5.229A5.145,5.145,0,0,0,52.474,49.506Zm2.006,4.462H49.536A3.1,3.1,0,0,1,52.709,51.9a1.757,1.757,0,0,1,1.77,2.064m31.28,4.561h-.008a2.079,2.079,0,0,0-1.94,1.559,1.466,1.466,0,0,0-.036.327v0a1.21,1.21,0,0,0,1.29,1.217.007.007,0,0,0,.006,0,2.087,2.087,0,0,0,1.941-1.561,1.585,1.585,0,0,0,.035-.322A1.2,1.2,0,0,0,85.759,58.529Zm1.034,1.5a1.871,1.871,0,0,1-1.723,1.39h0a.987.987,0,0,1-1.072-1,1.272,1.272,0,0,1,.033-.285,1.866,1.866,0,0,1,1.711-1.389.994.994,0,0,1,1.087,1.009A1.344,1.344,0,0,1,86.793,60.03Zm-1.158-.692h-.682l-.326,1.487h.339l.1-.481h.268l.22.481h.4l-.259-.533a.617.617,0,0,0,.433-.464C86.2,59.518,86,59.338,85.636,59.338Zm.146.509a.292.292,0,0,1-.311.216h-.336l.094-.436h.329C85.727,59.627,85.813,59.7,85.782,59.847Z" transform="translate(-30.589 -47.023)"/>
      <path id="path170" d="M80.823,75.755H30.087l.583-2.61H81.409Z" transform="translate(-30.087 -56.949)" fill="#efcc31"/>
    </g>
    <g id="Grupo_3388" data-name="Grupo 3388" transform="translate(352 744.964)">
      <g id="Grupo_3387" data-name="Grupo 3387">
        <g id="Grupo_3386" data-name="Grupo 3386" clip-path="url(#clip-path-2)">
          <g id="Grupo_3385" data-name="Grupo 3385">
            <g id="Grupo_3384" data-name="Grupo 3384" clip-path="url(#clip-path-2)">
              <path id="Trazado_5411" data-name="Trazado 5411" d="M275.157,865.8l-.378,1.763H272.6l.377-1.763Zm23.689,9.717H296.73l2.14-9.827h2.141Zm-24.2-7.309s-1.045,4.913-1.592,7.321h-2.14c.462-2.432,1.592-7.321,1.592-7.321Zm4.852,1.556c.669.316.378,1.533.207,2.25-.17.778-.548,1.934-1.508,1.994-.524.025-1.217.122-1.509-.461a5.1,5.1,0,0,1,.547-3.187,1.944,1.944,0,0,1,2.262-.6Zm.438-1.7c-1.788-.182-3.709.17-4.633,1.872-.73,1.363-1.3,3.15-.584,4.718a2.2,2.2,0,0,0,1.569.986c1.568.255,3.332.17,4.487-1.241a6.111,6.111,0,0,0,1.155-4.974,2.176,2.176,0,0,0-1.994-1.362M260.2,865.692l-2.14,9.827H255.8l-2.408-5.984-1.3,5.984H249.8l2.14-9.827h2.372l2.261,5.923,1.3-5.923Zm3.842,6.385c-.778.291-2.2.024-2.687.985a.74.74,0,0,0,.086.815c.4.437,1.07.255,1.592-.025a2.21,2.21,0,0,0,1.009-1.738Zm-2.018,3.441c-2.6.377-2.785-1.046-2.809-1.557a2.717,2.717,0,0,1,1.094-2.25c.925-.669,2.408-.437,3.625-.778a.721.721,0,0,0,.291-1.07c-.255-.316-1.191-.292-1.568-.086-.292.146-.377.462-.486.754h-1.934a2.608,2.608,0,0,1,1.532-2.116,6.7,6.7,0,0,1,3.442-.17,1.6,1.6,0,0,1,1.191.9,2.466,2.466,0,0,1-.024,1.422l-.669,3.187s.024.207.547.17c-.086.352-.255,1.131-.316,1.447-.729.17-1.885.462-2.226-.438-.06-.17-.06-.146-.06-.146a2.808,2.808,0,0,1-1.63.73m32.191-3.441c-.778.291-2.2.024-2.688.985a.744.744,0,0,0,.086.815c.4.437,1.07.255,1.593-.025a2.215,2.215,0,0,0,1.009-1.738Zm-2.031,3.441c-2.6.377-2.785-1.046-2.809-1.557a2.715,2.715,0,0,1,1.095-2.25c.924-.669,2.408-.437,3.624-.778a.721.721,0,0,0,.292-1.07c-.256-.316-1.191-.292-1.569-.086-.292.146-.377.462-.486.754h-1.934a2.607,2.607,0,0,1,1.533-2.116,6.7,6.7,0,0,1,3.441-.17,1.6,1.6,0,0,1,1.191.9,2.465,2.465,0,0,1-.024,1.422l-.669,3.187s.024.207.547.17c-.085.352-.255,1.131-.316,1.447-.729.17-1.884.462-2.225-.438-.061-.17-.061-.146-.061-.146a2.924,2.924,0,0,1-1.63.73m-22.692-1.557c-.206,0-.256-.146-.206-.292l.863-3.964h1.095l.316-1.471h-1.095l.437-2.056h-2.261l-.426,2.056h-.839l-.316,1.471h.815l-.863,3.989a2.479,2.479,0,0,0,0,1.3.8.8,0,0,0,.815.583h2.347l.377-1.593Zm19.773-5.351a1.49,1.49,0,0,0-.815-.523c-.255-.086-2.225-.377-3.015.863v-.778c-.486.024-1.764,0-2.031,0-.06.316-1.508,6.992-1.592,7.32h2.176l1.045-4.888a1.352,1.352,0,0,1,1.156-1.01,1.387,1.387,0,0,1,.353,0,.637.637,0,0,1,.633.839l-1.046,5.084H288.3l1.009-5.084a2.334,2.334,0,0,0-.049-1.824" transform="translate(-227.281 -857.947)" fill="#074f1f"/>
              <path id="Trazado_5412" data-name="Trazado 5412" d="M234.142,876.871c-.438-.024-1.655.377-2.117-.669a1.312,1.312,0,0,1,.378-1.533,2.062,2.062,0,0,1,2.225-.17Zm-1.108-5.607c0,.024,1.7-1.764,6.422,2.019,3.648,2.955,5.813,1.447,5.813,1.422l-.4,1.825s-1.738,1.848-6.4-1.849c-3.867-3.065-5.837-1.654-5.837-1.654s.4-1.848.4-1.763m.754-3.466c0,.024,1.7-1.764,6.422,2.018,3.648,2.956,5.812,1.447,5.812,1.423l-.4,1.824s-1.739,1.849-6.4-1.848c-3.843-3.077-5.837-1.654-5.837-1.654s.4-1.848.4-1.763m.754-3.417a1.97,1.97,0,0,1,1.362-.4c1.009,0,2.639.461,5.071,2.432,3.649,2.955,5.813,1.446,5.813,1.422l-.4,1.824s-1.739,1.849-6.4-1.848c-3.854-3.077-5.824-1.666-5.824-1.666s.377-1.849.377-1.764m10.677-.11c.438.024,1.655-.377,2.116.669a1.31,1.31,0,0,1-.377,1.533,2.063,2.063,0,0,1-2.226.17Z" transform="translate(-226.032 -857.827)" fill="#8fcf69"/>
              <path id="Trazado_5413" data-name="Trazado 5413" d="M304.76,875.2c.122,0,.171-.024.171-.146s-.146-.122-.232-.122h-.206v.256Zm.316.547h-.231l-.206-.4h-.146v.4h-.207v-.924h.438c.232,0,.353.06.353.292,0,.17-.085.231-.255.255Zm.207-.461a.63.63,0,0,0-.632-.67.611.611,0,0,0-.632.67.632.632,0,0,0,1.265,0m-1.484,0a.863.863,0,1,1,.863.863.883.883,0,0,1-.863-.863" transform="translate(-231.054 -858.557)" fill="#074f1f"/>
            </g>
          </g>
        </g>
      </g>
    </g>
    <g id="Grupo_3408" data-name="Grupo 3408" transform="translate(141 750.964)">
      <g id="Grupo_3407" data-name="Grupo 3407">
        <g id="Grupo_3406" data-name="Grupo 3406" clip-path="url(#clip-path-4)">
          <path id="Trazado_5445" data-name="Trazado 5445" d="M637.811,875.02h7.774V863.494Z" transform="translate(-628.162 -863.308)" fill="#f78b00"/>
          <path id="Trazado_5446" data-name="Trazado 5446" d="M628.544,863.315v11.711l17.423-11.711Z" transform="translate(-628.544 -863.315)" fill="#ed5505"/>
          <g id="Grupo_3405" data-name="Grupo 3405" transform="translate(-0.112 -0.194)">
            <g id="Grupo_3404" data-name="Grupo 3404" clip-path="url(#clip-path-5)">
              <path id="Trazado_5447" data-name="Trazado 5447" d="M651.724,868.129a3.41,3.41,0,0,0,1.261-.182,1.364,1.364,0,0,0,.667-1.379,1.4,1.4,0,0,0-.788-1.3,2.572,2.572,0,0,0-1.186-.2h-1.626v3.063Zm.32,5.142a3.248,3.248,0,0,0,1.206-.182,1.675,1.675,0,0,0,0-3.085,3.18,3.18,0,0,0-1.359-.2h-1.835v3.464Zm-3.946,1.757V863.316h4.06c1.587,0,3.5.831,3.5,3.033a2.786,2.786,0,0,1-1.17,2.476,2.875,2.875,0,0,1,1.784,2.822c0,1.871-1.545,3.38-4,3.38Zm17.078-4.334V866.2h-1.926v4.494c0,1.6-.818,2.632-2.1,2.632s-2.092-1.033-2.092-2.632V866.2H657.13v4.494a4.039,4.039,0,1,0,8.046,0m5.347-2.907a2.787,2.787,0,0,0,0,5.537,2.783,2.783,0,0,0,0-5.537m0,7.305a4.547,4.547,0,0,1,0-9.09,3.753,3.753,0,0,1,2.5.951v-3.636h1.919V874.91h-1.873V874.1a3.715,3.715,0,0,1-2.545.99m9.879-1.768a2.794,2.794,0,0,1,0-5.55,2.79,2.79,0,0,1,0,5.55m2.542-7.124v.8A3.7,3.7,0,0,0,680.4,866a4.548,4.548,0,0,0,0,9.09,3.741,3.741,0,0,0,2.5-.951s.388,3.324-2.545,3.324a3.019,3.019,0,0,1-2.5-1.555l-1.538,1.082a4.843,4.843,0,0,0,7.074,1.258,4.4,4.4,0,0,0,1.44-3.5V866.2Zm4.933,3.536a2.389,2.389,0,0,1,2.274-1.975,2.353,2.353,0,0,1,2.252,1.975Zm5.305-2.5A4.112,4.112,0,0,0,690.148,866a4.394,4.394,0,0,0-4.309,4.56,4.335,4.335,0,0,0,4.357,4.528,4.576,4.576,0,0,0,3.49-1.74l-1.5-1.052a2.584,2.584,0,0,1-1.988,1.036,2.421,2.421,0,0,1-2.332-2h6.448a4.646,4.646,0,0,0-1.131-4.1m5.533,6.1c-.978,0-1.434-.477-1.434-1.507V867.9h1.876v-1.7h-1.876v-2.433h-1.923v8.06c0,2.041,1.17,3.265,3.054,3.265a6.432,6.432,0,0,0,.782-.055v-1.73c-.242.023-.381.026-.479.026m3-8.428c.143,0,.3-.038.3-.207,0-.151-.144-.193-.277-.193h-.228v.4Zm-.454-.608h.489c.263,0,.522.107.522.407a.373.373,0,0,1-.323.375l.375.609h-.306l-.326-.58h-.179v.58h-.252Zm.486,1.749A1.048,1.048,0,1,0,700.7,865a1.053,1.053,0,0,0,1.045,1.05m0-2.284A1.231,1.231,0,1,1,700.5,865a1.236,1.236,0,0,1,1.241-1.235" transform="translate(-627.626 -863.121)" fill="#00285f"/>
            </g>
          </g>
        </g>
      </g>
    </g>
    <g id="Grupo_4646" data-name="Grupo 4646" transform="translate(-573 756.964)">
      <path id="Trazado_6309" data-name="Trazado 6309" d="M631.712,12.193A3.717,3.717,0,0,1,628,8.479V-6.287A3.717,3.717,0,0,1,631.713-10l34.618,0h4.283a3.7,3.7,0,0,1,2.445.922,3.706,3.706,0,0,1,1.267,2.792V8.482a3.718,3.718,0,0,1-3.713,3.713Z" fill="#003fac"/>
      <path id="path3029" d="M679.787,20.544a2.887,2.887,0,0,0,2.887-2.887V2.89A2.887,2.887,0,0,0,679.789,0h-4.38L640.888,0A2.887,2.887,0,0,0,638,2.887V17.653a2.887,2.887,0,0,0,2.886,2.888Z" transform="translate(-9.174 -9.174)" fill="#003fac"/>
      <path id="path3031" d="M648.325,26.778a2.524,2.524,0,0,1-2.663-2.6V10.067a2.524,2.524,0,0,1,2.663-2.6l38.082,0a2.524,2.524,0,0,1,2.663,2.6V24.185a2.524,2.524,0,0,1-2.663,2.6Zm37.66-.582a2.19,2.19,0,0,0,2.442-2.317v-13.5a2.19,2.19,0,0,0-2.442-2.318l-37.239,0a2.19,2.19,0,0,0-2.442,2.317v13.5a2.19,2.19,0,0,0,2.442,2.318Z" transform="translate(-16.203 -16.029)" fill="#f9ed38"/>
      <path id="path3033" d="M713.387,84.43c-1.871,0-3.639-.96-3.639-3.055s1.769-3.054,3.64-3.054,3.639.96,3.639,3.054S715.258,84.43,713.387,84.43ZM681.8,82.66h4.348l.791,1.615h2.56l-4.044-7.912h-2.787l-3.849,7.912h2.245Zm10-6.216h-1.969v7.832H691.8Zm7.075,6.7V80c-.382-1.5-2.188-1.6-3.21-1.6-1.486,0-3.026.251-3.244,2.028h1.92c.055-.338.138-.887,1.092-.887.491,0,1.334.033,1.334.676,0,.327-.368.426-.668.458l-1.8.207c-1.213.142-2.113.72-2.113,1.854,0,1.2,1.117,1.691,2.208,1.691a3.515,3.515,0,0,0,2.425-.84,2.125,2.125,0,0,0,.177.687h1.9Zm10.585-2.759c0-1.276-1.327-1.781-2.721-1.781a2.308,2.308,0,0,0-1.9.927,2.148,2.148,0,0,0-1.985-.927c-1.261,0-1.3.541-1.544.923h-.027v-.851h-1.958v5.6h2.038V80.943c0-.633.282-.991,1.167-.974.859.017.886.527.886,1.018v3.29h2.118V81c0-.688.175-1.051,1.114-1.028.71.017.991.3.939.985v3.323h1.878Zm3.922-.775a1.77,1.77,0,1,0,1.675,1.767A1.56,1.56,0,0,0,713.387,79.608ZM683.935,78.05h0l1.47,3.1h-2.854Zm12.757,4.142c0,.709-.859,1.145-1.7,1.145-.368,0-.886-.164-.886-.7,0-.633.586-.775,1.295-.872a3.276,3.276,0,0,0,1.295-.316Zm21.055-4.1a.822.822,0,1,1-.821-.819A.792.792,0,0,1,717.747,78.095Zm-.236,0a.587.587,0,1,0-.585.629v0A.6.6,0,0,0,717.511,78.095Zm-.206.44h-.223l-.2-.37h-.089v.37H716.6v-.882h.329c.227,0,.362.065.362.266a.206.206,0,0,1-.212.23Zm-.214-.635c0-.091-.1-.1-.169-.1h-.132v.212h.167C717.041,78.014,717.091,78,717.091,77.9Z" transform="translate(-46.622 -79.229)" fill="#f9ed38"/>
    </g>
    <g id="Grupo_5384" data-name="Grupo 5384" transform="translate(841 747.964)">
      <g id="Grupo_3423" data-name="Grupo 3423">
        <g id="Grupo_3422" data-name="Grupo 3422" clip-path="url(#clip-path-6)">
          <path id="Trazado_5460" data-name="Trazado 5460" d="M834.423,869.361l-2.045,6.066H836.7l2.063-6.066Z" transform="translate(-832.378 -861.429)" fill="#005eb8"/>
          <path id="Trazado_5461" data-name="Trazado 5461" d="M839.9,865.559h1.859l1.508-4.406h-8.9l-1.478,4.391h2.664l-.926,2.748h4.344Z" transform="translate(-832.414 -860.855)" fill="#005eb8"/>
          <g id="Grupo_3421" data-name="Grupo 3421">
            <g id="Grupo_3420" data-name="Grupo 3420" clip-path="url(#clip-path-6)">
              <path id="Trazado_5462" data-name="Trazado 5462" d="M844.927,875.427h4.026s1.17-3.455,2.036-6.066h-4.041Z" transform="translate(-833.255 -861.429)" fill="#005eb8"/>
              <path id="Trazado_5463" data-name="Trazado 5463" d="M839.747,875.427h4.086l2.02-6.066H841.79Z" transform="translate(-832.893 -861.429)" fill="#005eb8"/>
              <path id="Trazado_5464" data-name="Trazado 5464" d="M851.508,866.6c.412-1.3-.206-1.855-.726-2.089a2.02,2.02,0,0,0-.828-.166h-2.192l1.024-3.19h-4.26l-2.4,7.14h8.834c.223-.677.418-1.271.552-1.695" transform="translate(-833.059 -860.855)" fill="#005eb8"/>
              <path id="Trazado_5465" data-name="Trazado 5465" d="M858.428,868.573l1.156-3.407h-4.3a2.725,2.725,0,0,0-2.458,1.99l-.491,1.417h6.1Z" transform="translate(-833.773 -861.136)" fill="#005eb8"/>
              <path id="Trazado_5466" data-name="Trazado 5466" d="M849.884,875.427h4.3l2.016-6.066h-4.216Z" transform="translate(-833.602 -861.429)" fill="#005eb8"/>
              <path id="Trazado_5467" data-name="Trazado 5467" d="M857.123,875.427h4.245l2.049-6.066H859.19Z" transform="translate(-834.108 -861.429)" fill="#005eb8"/>
              <path id="Trazado_5468" data-name="Trazado 5468" d="M864.9,865.166h-4.216l-1.161,3.407h4.226Z" transform="translate(-834.276 -861.136)" fill="#005eb8"/>
              <path id="Trazado_5469" data-name="Trazado 5469" d="M866.361,860.833h-4.216l-1.161,3.407h4.226Z" transform="translate(-834.377 -860.833)" fill="#005eb8"/>
              <path id="Trazado_5470" data-name="Trazado 5470" d="M862.373,875.427h4.26l1.989-6.066h-4.211Z" transform="translate(-834.475 -861.429)" fill="#005eb8"/>
              <path id="Trazado_5471" data-name="Trazado 5471" d="M870.414,868.27l1.156-3.407h-1.6l.278-.732h2.034l1.1-3.3h-4.392c-1.932,0-2.576,2.449-2.576,2.449l-1.676,4.988h5.672Z" transform="translate(-834.64 -860.833)" fill="#005eb8"/>
              <path id="Trazado_5472" data-name="Trazado 5472" d="M870.793,875.427h4.4l2.08-6.066h-4.428Z" transform="translate(-835.063 -861.429)" fill="#005eb8"/>
              <path id="Trazado_5473" data-name="Trazado 5473" d="M881.815,868.294l-.1-3.436h-3.25l1.171-3.674H875.63l-1.23,3.7h-1.742l-1.134,3.407h10.29Z" transform="translate(-835.114 -860.857)" fill="#005eb8"/>
              <path id="Trazado_5474" data-name="Trazado 5474" d="M889.994,865.181h-4.577l-2.253,3.392h4.543Z" transform="translate(-835.927 -861.137)" fill="#005eb8"/>
              <path id="Trazado_5475" data-name="Trazado 5475" d="M879.253,873.89l-4.069,6.256h4.362l7.27-10.785h-8.171Z" transform="translate(-835.37 -861.429)" fill="#005eb8"/>
              <path id="Trazado_5476" data-name="Trazado 5476" d="M874.2,879.985a.968.968,0,0,1-.985.984.978.978,0,1,1,.006-1.956.965.965,0,0,1,.979.972m-1.767,0a.784.784,0,0,0,.789.807.77.77,0,0,0,.765-.8.777.777,0,1,0-1.553-.007m.605.539h-.19V879.5a1.939,1.939,0,0,1,.354-.031.474.474,0,0,1,.318.08.259.259,0,0,1-.091.459v.012a.314.314,0,0,1,.165.25.736.736,0,0,0,.079.251h-.2a.8.8,0,0,1-.086-.263c-.024-.116-.091-.165-.232-.165h-.122Zm0-.575h.128c.135,0,.263-.043.263-.159,0-.1-.068-.171-.245-.171a.761.761,0,0,0-.147.012Z" transform="translate(-835.162 -862.103)" fill="#005eb8"/>
              <path id="Trazado_5477" data-name="Trazado 5477" d="M832.423,879.008V879a1.779,1.779,0,0,1,1.857-1.774,1.924,1.924,0,0,1,1.409.534l-.406.445a1.463,1.463,0,0,0-1.008-.426,1.176,1.176,0,0,0-1.188,1.21V879a1.185,1.185,0,0,0,1.188,1.219,1.443,1.443,0,0,0,1.034-.446l.406.392a1.9,1.9,0,0,1-1.461.608,1.769,1.769,0,0,1-1.831-1.764" transform="translate(-832.382 -861.978)" fill="#005eb8"/>
              <path id="Trazado_5478" data-name="Trazado 5478" d="M837.818,877.261h.587l1.584,3.454h-.669l-.365-.828h-1.7l-.37.828h-.648Zm.906,2.093-.623-1.372-.617,1.372Z" transform="translate(-832.648 -861.981)" fill="#005eb8"/>
              <path id="Trazado_5479" data-name="Trazado 5479" d="M840.824,877.288h1.6a1.5,1.5,0,0,1,1.04.343,1.012,1.012,0,0,1,.3.74v.01a1.041,1.041,0,0,1-.859,1.038l.972,1.3h-.746l-.885-1.2h-.792v1.2h-.633Zm1.559,1.7c.452,0,.74-.225.74-.574v-.009c0-.367-.277-.568-.746-.568h-.921v1.151Z" transform="translate(-832.969 -861.983)" fill="#005eb8"/>
              <path id="Trazado_5480" data-name="Trazado 5480" d="M846.592,877.288H848.2a1.493,1.493,0,0,1,1.039.343,1.008,1.008,0,0,1,.3.74v.01a1.041,1.041,0,0,1-.859,1.038l.972,1.3H848.9l-.885-1.2h-.792v1.2h-.633Zm1.559,1.7c.453,0,.74-.225.74-.574v-.009c0-.367-.277-.568-.746-.568h-.921v1.151Z" transform="translate(-833.372 -861.983)" fill="#005eb8"/>
              <path id="Trazado_5481" data-name="Trazado 5481" d="M850.812,877.288h2.67v.539h-2.037v.892h1.806v.539h-1.806v.921h2.063v.539h-2.7Z" transform="translate(-833.667 -861.983)" fill="#005eb8"/>
              <path id="Trazado_5482" data-name="Trazado 5482" d="M854.628,877.288h.586l1.929,2.372v-2.372h.623v3.43h-.53l-1.986-2.44v2.44h-.622Z" transform="translate(-833.933 -861.983)" fill="#005eb8"/>
              <path id="Trazado_5483" data-name="Trazado 5483" d="M859.752,877.846H858.61v-.558h2.922v.558H860.39v2.871h-.638Z" transform="translate(-834.211 -861.983)" fill="#005eb8"/>
              <path id="Trazado_5484" data-name="Trazado 5484" d="M863.114,877.261h.587l1.584,3.454h-.669l-.365-.828h-1.7l-.37.828h-.648Zm.906,2.093-.622-1.372-.618,1.372Z" transform="translate(-834.416 -861.981)" fill="#005eb8"/>
              <path id="Trazado_5485" data-name="Trazado 5485" d="M866.12,877.288h.633v2.881h1.893v.549H866.12Z" transform="translate(-834.736 -861.983)" fill="#005eb8"/>
            </g>
          </g>
        </g>
      </g>
    </g>
    <g id="Grupo_4603" data-name="Grupo 4603" transform="translate(935 747.964)">
      <g id="Grupo_3443" data-name="Grupo 3443">
        <g id="Grupo_3442" data-name="Grupo 3442" clip-path="url(#clip-path-8)">
          <g id="Grupo_3437" data-name="Grupo 3437">
            <g id="Grupo_3436" data-name="Grupo 3436" clip-path="url(#clip-path-8)">
              <path id="Trazado_5494" data-name="Trazado 5494" d="M1144.689,863.489v-.37h-1.254v-2.144h-.377v2.514Zm-2.855-.934h-.776l.2-.575c.064-.186.154-.474.183-.581.029.107.129.4.191.578Zm.728.934-.915-2.514h-.4l-.905,2.514h.392l.207-.6h1.005l.212.6Zm-2.233-2.144v-.37h-1.842v.37h.733v2.144h.377v-2.144Zm-2.337,2.144v-2.514h-.366v1.3c0,.139,0,.5,0,.592-.035-.064-.143-.251-.208-.355l-.954-1.534h-.385v2.514h.367v-1.3c0-.139,0-.488,0-.581.04.064.126.215.187.309l1,1.576Zm-2.445,0v-.366h-1.3v-.793h.722v-.366h-.722v-.621h1.243v-.366h-1.619v2.514Zm-2.636-1.752a.379.379,0,0,1-.427.4h-.733v-.807h.733a.385.385,0,0,1,.427.406m.381-.011a.726.726,0,0,0-.808-.75h-1.1v2.514h.369v-1h.568l.5,1h.434l-.513-1.028a.7.7,0,0,0,.553-.736m-4.326.011a.379.379,0,0,1-.428.4h-.732v-.807h.732a.385.385,0,0,1,.428.406m.381-.011a.726.726,0,0,0-.808-.75h-1.1v2.514h.37v-1h.568l.5,1h.434l-.513-1.028a.7.7,0,0,0,.552-.736m-3.135.83h-.776l.2-.575c.064-.186.154-.474.183-.581.029.107.129.4.191.578Zm.728.934-.915-2.514h-.4l-.9,2.514h.392l.207-.6h1.005l.212.6Zm-2.538-.442-.312-.208a.6.6,0,0,1-.552.313c-.438,0-.675-.356-.675-.92s.237-.919.675-.919a.542.542,0,0,1,.52.3l.334-.208a.9.9,0,0,0-.854-.47c-.65,0-1.063.535-1.063,1.3s.413,1.3,1.063,1.3a.957.957,0,0,0,.865-.481" transform="translate(-1093.198 -860.936)" fill="#0e1d3e"/>
              <path id="Trazado_5495" data-name="Trazado 5495" d="M1095.832,869.962H1093.3v4.077H1091V862.53h5.031c2.17,0,3.962,1.2,3.962,3.65,0,2.664-1.776,3.782-4.16,3.782m.115-5.2H1093.3v2.96h2.68c1.069,0,1.644-.493,1.644-1.5s-.658-1.464-1.677-1.464" transform="translate(-1090.998 -861.047)" fill="#0e1d3e"/>
              <path id="Trazado_5496" data-name="Trazado 5496" d="M1105.5,874.231v-.576a2.755,2.755,0,0,1-1.94.757,3.01,3.01,0,0,1-3.223-3.075c0-1.907,1.546-2.86,3.5-2.86a3.589,3.589,0,0,1,1.661.344v-.427a1.093,1.093,0,0,0-1.234-1.1,4.266,4.266,0,0,0-2.368.575l-.871-1.578a5.811,5.811,0,0,1,3.239-.871c2.088,0,3.5,1.085,3.5,3.025v5.787Zm0-3.617a2.632,2.632,0,0,0-1.578-.362c-.855,0-1.315.394-1.315,1.085,0,.608.345,1.151,1.315,1.151a1.858,1.858,0,0,0,1.578-.789Z" transform="translate(-1091.651 -861.249)" fill="#0e1d3e"/>
              <path id="Trazado_5497" data-name="Trazado 5497" d="M1134.467,874.227a6.773,6.773,0,0,1-3.616-1l.756-1.726a6.022,6.022,0,0,0,2.992.79c.887,0,1.151-.214,1.151-.658,0-.4-.312-.593-1.266-.872-2.071-.625-3.4-1.135-3.4-2.96,0-1.792,1.43-2.564,3.453-2.564a6.875,6.875,0,0,1,3.189.838l-.723,1.792a5.6,5.6,0,0,0-2.516-.691c-.92,0-1.167.181-1.167.559,0,.362.263.51,1.792,1,1.546.509,2.877,1.069,2.877,2.794,0,1.989-1.577,2.7-3.519,2.7" transform="translate(-1093.783 -861.236)" fill="#0e1d3e"/>
              <path id="Trazado_5498" data-name="Trazado 5498" d="M1129.689,870.463h-5.163a1.66,1.66,0,0,0,1.776,1.627,1.926,1.926,0,0,0,1.48-.607l1.611,1.348a4.027,4.027,0,0,1-3.091,1.4c-2.483,0-4.061-1.759-4.061-4.488,0-2.647,1.66-4.5,3.848-4.5,2.3,0,3.633,2.038,3.633,4.5,0,.328-.017.559-.033.724m-3.716-3.255a1.5,1.5,0,0,0-1.414,1.545h2.959a1.53,1.53,0,0,0-1.545-1.545" transform="translate(-1093.182 -861.236)" fill="#0e1d3e"/>
              <path id="Trazado_5499" data-name="Trazado 5499" d="M1112.8,877.608h-2.235l1.35-3.522-3.354-8.632h2.5l1.414,4.159c.231.658.46,1.48.559,1.891.1-.427.328-1.217.559-1.891l1.414-4.159h2.433Z" transform="translate(-1092.226 -861.252)" fill="#0e1d3e"/>
              <path id="Trazado_5500" data-name="Trazado 5500" d="M1120.909,860.953l-2.111,1.261v11.715h2.111Z" transform="translate(-1092.941 -860.937)" fill="#0e1d3e"/>
              <path id="Trazado_5501" data-name="Trazado 5501" d="M1142.726,874.227a6.778,6.778,0,0,1-3.617-1l.756-1.726a6.023,6.023,0,0,0,2.992.79c.888,0,1.151-.214,1.151-.658,0-.4-.312-.593-1.267-.872-2.072-.625-3.4-1.135-3.4-2.96,0-1.792,1.432-2.564,3.453-2.564a6.881,6.881,0,0,1,3.19.838l-.724,1.792a5.594,5.594,0,0,0-2.516-.691c-.92,0-1.166.181-1.166.559,0,.362.263.51,1.791,1,1.546.509,2.877,1.069,2.877,2.794,0,1.989-1.578,2.7-3.518,2.7" transform="translate(-1094.36 -861.236)" fill="#0e1d3e"/>
            </g>
          </g>
          <g id="Grupo_3439" data-name="Grupo 3439" transform="translate(26.763 13.922)">
            <g id="Grupo_3438" data-name="Grupo 3438" clip-path="url(#clip-path-10)">
              <rect id="Rectángulo_463" data-name="Rectángulo 463" width="27.812" height="5.197" transform="translate(0 -0.445)" fill="url(#linear-gradient)"/>
            </g>
          </g>
          <g id="Grupo_3441" data-name="Grupo 3441">
            <g id="Grupo_3440" data-name="Grupo 3440" clip-path="url(#clip-path-8)">
              <path id="Trazado_5503" data-name="Trazado 5503" d="M1148.522,866.326v-.336h.19c.111,0,.234.032.234.16s-.137.176-.26.176Zm-.21.663h.21V866.5h.153l.27.492h.255l-.314-.515a.313.313,0,0,0,.269-.318c0-.253-.215-.346-.438-.346h-.4Zm-.469-.585a.875.875,0,1,1,.872.885.878.878,0,0,1-.872-.885m-.165,0a1.039,1.039,0,1,0,1.036-1.044,1.031,1.031,0,0,0-1.036,1.044" transform="translate(-1094.959 -861.245)" fill="#0e1d3e"/>
            </g>
          </g>
        </g>
      </g>
    </g>
    <g id="Grupo_3398" data-name="Grupo 3398" transform="translate(559 749.964)">
      <g id="Grupo_3397" data-name="Grupo 3397">
        <g id="Grupo_3396" data-name="Grupo 3396" clip-path="url(#clip-path-12)">
          <g id="Grupo_3395" data-name="Grupo 3395" transform="translate(-2.477 -3.922)">
            <g id="Grupo_3394" data-name="Grupo 3394" clip-path="url(#clip-path-13)">
              <path id="Trazado_5424" data-name="Trazado 5424" d="M442.609,867.271a5.685,5.685,0,1,0,5.685,5.685,5.684,5.684,0,0,0-5.685-5.685m0,8.373a2.688,2.688,0,1,1,2.688-2.688,2.688,2.688,0,0,1-2.688,2.688" transform="translate(-421.355 -859.216)" fill="#c8102e"/>
              <path id="Trazado_5425" data-name="Trazado 5425" d="M452.3,878.681h-2.083a.469.469,0,0,1-.467-.468V863.634a.469.469,0,0,1,.467-.468H452.3a.469.469,0,0,1,.468.468v14.578a.469.469,0,0,1-.468.468" transform="translate(-421.265 -859.245)" fill="#c8102e"/>
              <path id="Trazado_5426" data-name="Trazado 5426" d="M452.3,878.681h-2.083a.469.469,0,0,1-.467-.468V863.634a.469.469,0,0,1,.467-.468H452.3a.469.469,0,0,1,.468.468v14.578a.469.469,0,0,1-.468.468" transform="translate(-421.265 -859.245)" fill="#c8102e"/>
              <path id="Trazado_5427" data-name="Trazado 5427" d="M457.369,878.681h-2.083a.469.469,0,0,1-.467-.468V863.634a.469.469,0,0,1,.467-.468h2.083a.469.469,0,0,1,.467.468v14.578a.469.469,0,0,1-.467.468" transform="translate(-421.229 -859.245)" fill="#c8102e"/>
              <path id="Trazado_5428" data-name="Trazado 5428" d="M435.91,875.651H435.8a.5.5,0,0,1-.5-.5V863.634a.469.469,0,0,0-.467-.468h-2.083a.469.469,0,0,0-.467.468v4.329a5.685,5.685,0,1,0,.834,9.5,3.5,3.5,0,0,0,2.656,1.205h.144a.468.468,0,0,0,.467-.467V876.12a.468.468,0,0,0-.467-.468m-6.3.021a2.688,2.688,0,1,1,2.689-2.688,2.688,2.688,0,0,1-2.689,2.688" transform="translate(-421.447 -859.245)" fill="#c8102e"/>
              <path id="Trazado_5429" data-name="Trazado 5429" d="M471.321,875.625h-.112a.5.5,0,0,1-.5-.5v-7.688a.469.469,0,0,0-.467-.467h-2.084a.469.469,0,0,0-.467.467v1.057a3.8,3.8,0,0,0-2.667-1.217,5.685,5.685,0,1,0,3.5,10.164,3.5,3.5,0,0,0,2.656,1.205h.145a.469.469,0,0,0,.467-.467v-2.083a.469.469,0,0,0-.467-.468m-6.3.021a2.688,2.688,0,1,1,2.688-2.688,2.688,2.688,0,0,1-2.688,2.688" transform="translate(-421.198 -859.218)" fill="#c8102e"/>
              <path id="Trazado_5430" data-name="Trazado 5430" d="M480.956,867.9a.406.406,0,0,0-.309-.376,5.172,5.172,0,0,0-2.028-.219h0a2.362,2.362,0,0,0-2.3,1.883v-1.756a.468.468,0,0,0-.467-.467h-2.083a.469.469,0,0,0-.467.467v10.753a.469.469,0,0,0,.467.468h2.083a.469.469,0,0,0,.467-.468v-5.27h0v0A2.657,2.657,0,0,1,479,870.28c.187,0,.594.042.614.042a.6.6,0,0,0,.547-.4l.76-1.87.005-.012h0a.386.386,0,0,0,.027-.14" transform="translate(-421.099 -859.218)" fill="#c8102e"/>
              <path id="Trazado_5431" data-name="Trazado 5431" d="M482.089,876.917a1.85,1.85,0,1,1-1.849-1.891,1.871,1.871,0,0,1,1.849,1.891" transform="translate(-421.063 -859.161)" fill="#c8102e"/>
            </g>
          </g>
          <text id="TM" transform="translate(57.791 4.92)" fill="gray" font-size="1" font-family="Lato-Regular, Lato"><tspan x="0" y="0">TM</tspan></text>
        </g>
      </g>
    </g>
    <g id="Grupo_5383" data-name="Grupo 5383" transform="translate(758 747.964)">
      <g id="Grupo_3382" data-name="Grupo 3382">
        <g id="Grupo_3381" data-name="Grupo 3381" clip-path="url(#clip-path-14)">
          <g id="Grupo_3380" data-name="Grupo 3380">
            <g id="Grupo_3379" data-name="Grupo 3379" clip-path="url(#clip-path-14)">
              <path id="Trazado_5409" data-name="Trazado 5409" d="M177.833,864.946l-2.326,3.506h-.032c-.192-.223-1.211-1.53-1.211-1.53a12.428,12.428,0,0,1-4.27,2.1l1.88,2.454v.033c-.286.414-4.079,6.023-4.079,6.023h-.032v-8.062a25.665,25.665,0,0,1-3.76.255h-1.21v3.218s-.033.033-.033,0a4.214,4.214,0,0,0-.669-1.083c-1.593-1.689-7.074-2.295-7.871-3.187a.973.973,0,0,1-.223-.638c0-.733.446-1.178,1.657-1.21.893-.033,1.593.382,1.785,2.071h4.876a3.959,3.959,0,0,0-.064-.637c-.255-2.485-1.529-3.983-6.277-3.983-2.932,0-4.907.51-6.023,1.625a3.773,3.773,0,0,0-1.052,2.8,3.59,3.59,0,0,0,.829,2.454,9.408,9.408,0,0,0,3.76,1.721c1.911.574,3.824.988,4.174,1.5a1.2,1.2,0,0,1,.223.67c0,1.115-1.116,1.433-2.167,1.433a1.922,1.922,0,0,1-1.466-.541,2.829,2.829,0,0,1-.51-1.721l-5.035-.032c.063,1.529.223,2.676,1.178,3.5s2.677,1.338,5.673,1.338c4.3,0,6.468-1.179,7.2-3.059a.032.032,0,0,1,.033.032v2.645h9.623l2.74-3.92h.032c.223.319,2.614,3.92,2.614,3.92h10.26V868.9a.031.031,0,0,1,.033-.032h2.963v-3.92Zm5.29,12.651h0c-.032,0-4.333-5.958-4.333-5.958v-.033c.159-.222,1.88-2.613,1.88-2.644l.032-.032h2.422V877.6Z" transform="translate(-148.071 -861.345)" fill="#111119"/>
              <path id="Trazado_5410" data-name="Trazado 5410" d="M174.4,866.367a16.547,16.547,0,0,1-9.464,2.39c-.351,0-.7,0-1.084-.033v-3.951c3.665.255,6.151-.382,7.648-1.5a5.11,5.11,0,0,0,1.306-1.466h5.162a9.449,9.449,0,0,1-3.569,4.557" transform="translate(-149.129 -861.173)" fill="#f47c22"/>
            </g>
          </g>
        </g>
      </g>
    </g>
    <g id="Grupo_5382" data-name="Grupo 5382" transform="translate(472 749.964)">
      <g id="Grupo_3392" data-name="Grupo 3392">
        <g id="Grupo_3391" data-name="Grupo 3391" clip-path="url(#clip-path-16)">
          <path id="Trazado_5414" data-name="Trazado 5414" d="M348.439,863.595l-5.819,13.726h3.667l1.006-2.694h5.314l1.066,2.694h3.681l-5.614-13.726Zm-.193,8.377,1.743-4.712,1.707,4.712Z" transform="translate(-342.444 -863.071)" fill="#d40029" fill-rule="evenodd"/>
          <path id="Trazado_5415" data-name="Trazado 5415" d="M363.246,873.514l-3.236-9.919h-3.722l5.2,13.726H364.8l5.291-13.726h-3.664Z" transform="translate(-343.399 -863.071)" fill="#d40029" fill-rule="evenodd"/>
          <g id="Grupo_3390" data-name="Grupo 3390">
            <g id="Grupo_3389" data-name="Grupo 3389" clip-path="url(#clip-path-16)">
              <path id="Trazado_5416" data-name="Trazado 5416" d="M392.626,864.522c0-.283-.244-.386-.5-.386h-.457v1.32h.237V864.9h.173l.305.552h.287l-.355-.578a.352.352,0,0,0,.305-.356m-.715.191v-.375h.214c.125,0,.264.035.264.18s-.154.2-.293.2Z" transform="translate(-345.872 -863.109)" fill="#d40029" fill-rule="evenodd"/>
              <path id="Trazado_5417" data-name="Trazado 5417" d="M392.075,863.595a1.163,1.163,0,1,0,1.178,1.168,1.167,1.167,0,0,0-1.178-1.168m0,2.158a.989.989,0,1,1,.992-.99.993.993,0,0,1-.992.99" transform="translate(-345.818 -863.071)" fill="#d40029" fill-rule="evenodd"/>
              <path id="Trazado_5418" data-name="Trazado 5418" d="M384.1,865.954a3.58,3.58,0,0,1,2.523,1.041l2.032-2.088a6.869,6.869,0,0,0-4.5-1.685c-2.558,0-5.31,1.26-5.31,4.3,0,2.48,1.764,3.349,3.508,3.911,1.8.584,2.851.934,2.851,1.981,0,1.1-.892,1.493-1.9,1.493a4.346,4.346,0,0,1-3.1-1.33l-2.032,2.086a7.238,7.238,0,0,0,5.137,1.977c2.714,0,5.254-1.416,5.254-4.574,0-2.734-2.4-3.51-4.265-4.111-1.3-.409-2.115-.718-2.115-1.628,0-1.085,1.068-1.378,1.92-1.378" transform="translate(-344.928 -863.045)" fill="#d40029" fill-rule="evenodd"/>
              <rect id="Rectángulo_438" data-name="Rectángulo 438" width="3.334" height="13.726" transform="translate(28.017 0.524)" fill="#d40029"/>
              <path id="Trazado_5419" data-name="Trazado 5419" d="M348.439,863.595l-5.819,13.726h3.667l1.006-2.694h5.314l1.066,2.694h3.681l-5.614-13.726Zm-.193,8.377,1.743-4.712,1.707,4.712Z" transform="translate(-342.444 -863.071)" fill="#d4002a"/>
              <path id="Trazado_5420" data-name="Trazado 5420" d="M363.246,873.514l-3.236-9.919h-3.722l5.2,13.726H364.8l5.291-13.726h-3.664Z" transform="translate(-343.399 -863.071)" fill="#d4002a"/>
              <path id="Trazado_5421" data-name="Trazado 5421" d="M392.626,864.522c0-.283-.244-.386-.5-.386h-.457v1.32h.237V864.9h.173l.305.552h.287l-.355-.578a.352.352,0,0,0,.305-.356m-.715.191v-.375h.214c.125,0,.264.035.264.18s-.154.2-.293.2Z" transform="translate(-345.872 -863.109)" fill="#d4002a"/>
              <path id="Trazado_5422" data-name="Trazado 5422" d="M392.075,863.595a1.163,1.163,0,1,0,1.178,1.168,1.167,1.167,0,0,0-1.178-1.168m0,2.158a.989.989,0,1,1,.992-.99.993.993,0,0,1-.992.99" transform="translate(-345.818 -863.071)" fill="#d4002a"/>
              <path id="Trazado_5423" data-name="Trazado 5423" d="M384.1,865.954a3.58,3.58,0,0,1,2.523,1.041l2.032-2.088a6.869,6.869,0,0,0-4.5-1.685c-2.558,0-5.31,1.26-5.31,4.3,0,2.48,1.764,3.349,3.508,3.911,1.8.584,2.851.934,2.851,1.981,0,1.1-.892,1.493-1.9,1.493a4.346,4.346,0,0,1-3.1-1.33l-2.032,2.086a7.238,7.238,0,0,0,5.137,1.977c2.714,0,5.254-1.416,5.254-4.574,0-2.734-2.4-3.51-4.265-4.111-1.3-.409-2.115-.718-2.115-1.628,0-1.085,1.068-1.378,1.92-1.378" transform="translate(-344.928 -863.045)" fill="#d4002a"/>
              <rect id="Rectángulo_439" data-name="Rectángulo 439" width="3.334" height="13.726" transform="translate(28.017 0.524)" fill="#d4002a"/>
            </g>
          </g>
        </g>
      </g>
    </g>
    <g id="Grupo_5389" data-name="Grupo 5389" transform="translate(486.496 -11.098)">
      <g id="Grupo_5388" data-name="Grupo 5388" transform="translate(172.504 757.062)">
        <path id="Trazado_6829" data-name="Trazado 6829" d="M37.71.5h44.6a2.868,2.868,0,0,1,2.86,2.86V20.186a2.868,2.868,0,0,1-2.86,2.86H37.71" transform="translate(-26.218 -0.5)"/>
        <path id="Trazado_6829_-_Contorno" data-name="Trazado 6829 - Contorno" d="M82.313,23.546H37.71v-1h44.6a2.363,2.363,0,0,0,2.36-2.36V3.36A2.363,2.363,0,0,0,82.313,1H37.71V0h44.6a3.364,3.364,0,0,1,3.36,3.36V20.186A3.364,3.364,0,0,1,82.313,23.546Z" transform="translate(-26.218 -0.5)"/>
        <g id="Grupo_5385" data-name="Grupo 5385" transform="translate(0.154 0)">
          <path id="Trazado_6830" data-name="Trazado 6830" d="M11.958,23.046H3.267A2.77,2.77,0,0,1,.5,20.277V3.27A2.77,2.77,0,0,1,3.267.5h8.692" transform="translate(-0.497 -0.5)" fill="#00a664"/>
          <path id="Trazado_6830_-_Contorno" data-name="Trazado 6830 - Contorno" d="M11.958,23.546H3.267A3.273,3.273,0,0,1,0,20.277V3.27A3.273,3.273,0,0,1,3.267,0h8.692V1H3.267A2.272,2.272,0,0,0,1,3.27V20.277a2.272,2.272,0,0,0,2.27,2.27h8.692Z" transform="translate(-0.497 -0.5)" fill="#00a664"/>
        </g>
        <g id="Grupo_5387" data-name="Grupo 5387" transform="translate(0 7.557)">
          <path id="Trazado_6831" data-name="Trazado 6831" d="M109.875,35.357a2.509,2.509,0,0,1-1.676-.6v2.364h-1.324V31.141H108.2v.444a2.772,2.772,0,0,1,1.676-.551,3.384,3.384,0,0,1,2.266.737,1.828,1.828,0,0,1,.678,1.42c0,1.277-1.178,2.166-2.944,2.166m1.163-3.069a1.712,1.712,0,0,0-1.235-.421c-.991,0-1.6.52-1.6,1.285a1.171,1.171,0,0,0,.378.872,1.694,1.694,0,0,0,1.227.423,1.719,1.719,0,0,0,1.235-.423,1.2,1.2,0,0,0,0-1.736Z" transform="translate(-74.31 -29.288)" fill="#fff"/>
          <path id="Trazado_6832" data-name="Trazado 6832" d="M142.831,26.509a1.133,1.133,0,0,1-.72-.222.472.472,0,0,1-.218-.377.5.5,0,0,1,.218-.385,1.173,1.173,0,0,1,.707-.223,1.192,1.192,0,0,1,.719.223.5.5,0,0,1,.216.385c0,.333-.413.6-.923.6m.714,4.782h-1.451V27.156h1.451Z" transform="translate(-98.658 -25.302)" fill="#fff"/>
          <path id="Trazado_6833" data-name="Trazado 6833" d="M151.877,35.378a3.23,3.23,0,0,1-2.388-.742l-.079-.075.1-.055.894-.477.056-.035.057.046a2.238,2.238,0,0,0,1.358.457,1.592,1.592,0,0,0,.978-.248.225.225,0,0,0,.1-.183c0-.339-.675-.441-1.161-.513l-.17-.018c-1.007-.146-2.052-.394-2.052-1.239a1,1,0,0,1,.4-.77,3.746,3.746,0,0,1,2.132-.551,2.828,2.828,0,0,1,2.115.7l.069.075-1.008.495-.067.036-.057-.044a1.663,1.663,0,0,0-1.122-.377c-.462,0-.852.129-.852.367,0,.359.7.449,1.2.514.079.018.16.018.216.037.984.147,1.961.413,1.961,1.257,0,.991-1.475,1.348-2.685,1.348" transform="translate(-103.885 -29.247)" fill="#fff"/>
          <path id="Trazado_6834" data-name="Trazado 6834" d="M42.03,35.241v-2.4a.823.823,0,0,0-.288-.667,1.517,1.517,0,0,0-.951-.268c-.958,0-1.236.449-1.236,1.231v2.1H38.115v-4.1h1.441v.467a2.388,2.388,0,0,1,1.7-.574,2.711,2.711,0,0,1,1.728.511,1.342,1.342,0,0,1,.491,1.079v2.617H42.03" transform="translate(-26.5 -29.288)" fill="#fff"/>
          <path id="Trazado_6835" data-name="Trazado 6835" d="M56.906,29.616v-.853h.948V27.649H59.3v1.113h1.518v.853H59.3V31.5c0,.4.171.652.817.652a1.658,1.658,0,0,0,.7-.125v.844a3.7,3.7,0,0,1-1.066.134c-1.55,0-1.9-.477-1.9-1.42V29.616h-.948" transform="translate(-39.565 -26.934)" fill="#fff"/>
          <path id="Trazado_6836" data-name="Trazado 6836" d="M75.207,33.876a2.725,2.725,0,0,1-2.989-.115.823.823,0,0,1-.236-.415l4.482,0c.234,0,.356-.1.356-.39a2.041,2.041,0,0,0-.62-1.388,3.624,3.624,0,0,0-2.481-.815,3.672,3.672,0,0,0-2.564.923,1.8,1.8,0,0,0-.579,1.292,1.843,1.843,0,0,0,.579,1.327,3.773,3.773,0,0,0,2.6.874,4.937,4.937,0,0,0,1.519-.222,3.129,3.129,0,0,0,.582-.268,2.427,2.427,0,0,0,.509-.4,1.507,1.507,0,0,0,.239-.326c.048-.1-.122-.076-.23-.078H75.214l-.007,0m.03-1.335H71.9a2.025,2.025,0,0,1,1.8-.921,1.941,1.941,0,0,1,1.735.725C75.527,32.514,75.372,32.541,75.237,32.541Z" transform="translate(-49.071 -29.091)" fill="#fff"/>
          <path id="Trazado_6837" data-name="Trazado 6837" d="M96.571,31.143a2.951,2.951,0,0,0-.543-.059,2.7,2.7,0,0,0-1.675.751v-.644h-1.44v4.1h1.44v-2.05c0-.8.523-1.186,1.579-1.186a3.442,3.442,0,0,1,.522.052l.115.028v-.992" transform="translate(-64.602 -29.322)" fill="#fff"/>
          <path id="Trazado_6838" data-name="Trazado 6838" d="M132.15,31.143a2.948,2.948,0,0,0-.543-.059,2.7,2.7,0,0,0-1.675.751v-.644h-1.44v4.1h1.44v-2.05c0-.8.523-1.186,1.58-1.186a3.446,3.446,0,0,1,.522.052l.115.028v-.992" transform="translate(-89.341 -29.322)" fill="#fff"/>
          <path id="Trazado_6839" data-name="Trazado 6839" d="M172.039,33.876a2.725,2.725,0,0,1-2.989-.115.822.822,0,0,1-.236-.415l4.482,0c.235,0,.357-.1.357-.39a2.038,2.038,0,0,0-.619-1.388,3.627,3.627,0,0,0-2.482-.815,3.677,3.677,0,0,0-2.564.923,1.8,1.8,0,0,0-.579,1.292,1.845,1.845,0,0,0,.579,1.327,3.776,3.776,0,0,0,2.6.874,4.932,4.932,0,0,0,1.519-.222,3.125,3.125,0,0,0,.583-.268,2.433,2.433,0,0,0,.508-.4,1.488,1.488,0,0,0,.239-.326c.048-.1-.123-.076-.23-.078h-1.161l-.007,0m.03-1.335h-3.337a2.022,2.022,0,0,1,1.8-.921,1.94,1.94,0,0,1,1.735.725C172.359,32.514,172.2,32.541,172.069,32.541Z" transform="translate(-116.4 -29.091)" fill="#fff"/>
          <g id="Grupo_5386" data-name="Grupo 5386" transform="translate(0 1.036)">
            <path id="Trazado_6840" data-name="Trazado 6840" d="M17.233,41.2a3.621,3.621,0,0,0,2.481-.817h-.833a2.766,2.766,0,0,1-1.574.366,2.709,2.709,0,0,1-2.029-.836h-.664A3.011,3.011,0,0,0,17.233,41.2Z" transform="translate(-10.159 -36.498)" fill="#fff"/>
            <path id="Trazado_6841" data-name="Trazado 6841" d="M17.917,40.406a3.715,3.715,0,0,1-2.756,1.006,3.2,3.2,0,0,1-2.855-1.5h-.662a3.727,3.727,0,0,0,3.616,1.951A3.688,3.688,0,0,0,18.6,40.477a.815.815,0,0,0,.06-.094h-.721Z" transform="translate(-8.094 -36.498)" fill="#fff"/>
            <path id="Trazado_6842" data-name="Trazado 6842" d="M10.831,31C10.6,29.858,9.268,28.7,7.161,28.7h0a3.9,3.9,0,0,0-3.644,2c-.01.021-.044.109-.057.148H-.008v.4h9.34c.533,0,.613-.027.673-.084a.105.105,0,0,0,.031-.088c0-.311-.749-1.755-2.878-1.755A3.027,3.027,0,0,0,4.392,30.7a1.243,1.243,0,0,0-.071.147h-.24a1.664,1.664,0,0,1,.08-.171,3.108,3.108,0,0,1,3-1.565c2.14,0,3.086,1.457,3.1,2a.264.264,0,0,1-.1.256c-.066.049-.145.094-.834.094H-.008v.422h9.8c.487,0,.835-.013.986-.2C10.881,31.559,10.9,31.346,10.831,31Zm-5.785-.3a2.708,2.708,0,0,1,2.146-.961,2.408,2.408,0,0,1,2.041.85c.048.084.06.14.038.18-.033.065-.147.076-.255.079H4.961A.866.866,0,0,1,5.046,30.7Z" transform="translate(0.008 -28.703)" fill="#fff"/>
          </g>
        </g>
        <path id="Trazado_6843" data-name="Trazado 6843" d="M5.793,65.357a.7.7,0,0,1,0,.989.694.694,0,0,1-.987,0,.681.681,0,0,1-.2-.5.7.7,0,0,1,1.188-.492m.08-.079a.811.811,0,0,0-1.146,1.147.808.808,0,0,0,1.146,0,.81.81,0,0,0,0-1.147Zm-.454.535a.435.435,0,0,1-.149.019H5.13v-.322h.134a.4.4,0,0,1,.189.033.136.136,0,0,1,.059.13A.138.138,0,0,1,5.42,65.814Zm-.447.479H5.13v-.351h.124a.381.381,0,0,1,.175.029.217.217,0,0,1,.084.2v.071l0,.028,0,.01a.036.036,0,0,0,0,.009h.147l-.005-.011a.125.125,0,0,1-.008-.046c0-.023,0-.046,0-.066V66.1a.238.238,0,0,0-.049-.138.216.216,0,0,0-.154-.087.359.359,0,0,0,.13-.044.194.194,0,0,0,.087-.175.22.22,0,0,0-.138-.225.67.67,0,0,0-.243-.033H4.973Z" transform="translate(-3.121 -45.378)" fill="#fff"/>
      </g>
    </g>
  </g>
</svg>
