<svg xmlns="http://www.w3.org/2000/svg" width="20" height="20" viewBox="0 0 20 20">
  <g id="Moneda" transform="translate(-1648 -21)">
    <g id="Grupo_4648" data-name="Grupo 4648" transform="translate(581.314 -444.951)">
      <path id="Elipse_239" data-name="Elipse 239" d="M10,1.2A8.8,8.8,0,1,0,18.8,10,8.81,8.81,0,0,0,10,1.2M10,0A10,10,0,1,1,0,10,10,10,0,0,1,10,0Z" transform="translate(1066.686 465.951)" fill="#e6484b"/>
      <g id="Grupo_4619" data-name="Grupo 4619" transform="translate(1074.425 469.94)">
        <path id="Trazado_6308" data-name="Trazado 6308" d="M1082.923,484.562a2.864,2.864,0,0,1-2.861-2.86.6.6,0,1,1,1.2,0,1.66,1.66,0,0,0,3.321,0c0-1.055-.684-1.341-1.893-1.756a5.8,5.8,0,0,1-1.7-.8,2.363,2.363,0,0,1-.925-1.968,2.86,2.86,0,0,1,5.721,0,.6.6,0,1,1-1.2,0,1.66,1.66,0,0,0-3.321,0c0,.963.623,1.221,1.817,1.631a5.814,5.814,0,0,1,1.754.829,2.49,2.49,0,0,1,.949,2.062A2.863,2.863,0,0,1,1082.923,484.562Z" transform="translate(-1080.662 -473.421)" fill="#e6484b"/>
        <path id="Línea_360" data-name="Línea 360" d="M0,2.1a.6.6,0,0,1-.6-.6V0A.6.6,0,0,1,0-.6.6.6,0,0,1,.6,0V1.5A.6.6,0,0,1,0,2.1Z" transform="translate(2.26)" fill="#e6484b"/>
        <path id="Línea_361" data-name="Línea 361" d="M0,2.1a.6.6,0,0,1-.6-.6V0A.6.6,0,0,1,0-.6.6.6,0,0,1,.6,0V1.5A.6.6,0,0,1,0,2.1Z" transform="translate(2.26 10.54)" fill="#e6484b"/>
      </g>
    </g>
  </g>
</svg>
