<svg id="Trustpilot_ratings_4halfstar-RGB" data-name="Trustpilot ratings 4halfstar-RGB" xmlns="http://www.w3.org/2000/svg" width="92.228" height="17.293" viewBox="0 0 92.228 17.293">
  <g id="Grupo_68" data-name="Grupo 68">
    <rect id="Rectangle-path" width="17.293" height="17.293" fill="#00b67a"/>
    <rect id="Rectángulo_37" data-name="Rectángulo 37" width="17.293" height="17.293" transform="translate(18.734)" fill="#00b67a"/>
    <rect id="Rectángulo_38" data-name="Rectángulo 38" width="17.293" height="17.293" transform="translate(37.468)" fill="#00b67a"/>
    <rect id="Rectángulo_39" data-name="Rectángulo 39" width="17.293" height="17.293" transform="translate(56.201)" fill="#00b67a"/>
    <g id="Half" transform="translate(74.935)">
      <rect id="Rectángulo_40" data-name="Rectángulo 40" width="8.646" height="17.293" transform="translate(8.646)" fill="#dcdce6"/>
      <rect id="Rectángulo_41" data-name="Rectángulo 41" width="8.646" height="17.293" fill="#00b67a"/>
    </g>
    <path id="Shape" d="M1603.6,123.124l2.63-.666,1.1,3.386Zm6.052-4.377h-4.63l-1.423-4.359-1.423,4.359h-4.629l3.747,2.7-1.423,4.359,3.747-2.7,2.306-1.657,3.729-2.7Z" transform="translate(-1594.951 -111.469)" fill="#fff"/>
    <path id="Trazado_52" data-name="Trazado 52" d="M1626.623,123.124l2.63-.666,1.1,3.386Zm6.052-4.377h-4.629l-1.423-4.359-1.423,4.359h-4.63l3.747,2.7-1.423,4.359,3.747-2.7,2.306-1.657,3.729-2.7Z" transform="translate(-1599.243 -111.469)" fill="#fff"/>
    <path id="Trazado_53" data-name="Trazado 53" d="M1649.648,123.124l2.63-.666,1.1,3.386Zm6.052-4.377h-4.63l-1.423-4.359-1.423,4.359H1643.6l3.747,2.7-1.423,4.359,3.747-2.7,2.305-1.657,3.729-2.7Z" transform="translate(-1603.534 -111.469)" fill="#fff"/>
    <path id="Trazado_54" data-name="Trazado 54" d="M1672.674,123.124l2.63-.666,1.1,3.386Zm6.053-4.377h-4.63l-1.423-4.359-1.423,4.359h-4.63l3.747,2.7-1.423,4.359,3.747-2.7,2.306-1.657,3.729-2.7Z" transform="translate(-1607.825 -111.469)" fill="#fff"/>
    <path id="Trazado_55" data-name="Trazado 55" d="M1695.7,123.124l2.63-.666,1.1,3.386Zm6.053-4.377h-4.63l-1.423-4.359-1.423,4.359h-4.63l3.747,2.7-1.423,4.359,3.747-2.7,2.306-1.657,3.729-2.7Z" transform="translate(-1612.117 -111.469)" fill="#fff"/>
  </g>
</svg>
