<svg xmlns="http://www.w3.org/2000/svg" width="23.399" height="19.285" viewBox="0 0 23.399 19.285">
  <path id="Trazado_5466" data-name="Trazado 5466" d="M5879.36,1096.959a5.187,5.187,0,0,1,3.516,1.348,8.112,8.112,0,0,0,2.226-.908.75.75,0,0,1,1.1.874,5.247,5.247,0,0,1-.353.837.75.75,0,0,1,.875,1.127,10.131,10.131,0,0,1-2.109,2.269c0,.074,0,.146,0,.218a13.967,13.967,0,0,1-3.477,9.105,12.818,12.818,0,0,1-4.25,3.183,13.675,13.675,0,0,1-5.792,1.23,13.488,13.488,0,0,1-7.3-2.131.75.75,0,0,1,.4-1.381.732.732,0,0,1,.084,0,8.785,8.785,0,0,0,1,.05,8.235,8.235,0,0,0,3.62-.826,5.222,5.222,0,0,1-2.959-3.226.748.748,0,0,1,.143-.714c.015-.017.03-.034.046-.05a5.226,5.226,0,0,1-1.792-3.953v-.055a.75.75,0,0,1,.621-.739,5.225,5.225,0,0,1-.593-2.43,5.15,5.15,0,0,1,.712-2.644.75.75,0,0,1,1.229-.093,12.025,12.025,0,0,0,7.815,4.338,5.227,5.227,0,0,1,5.234-5.437Zm3.278,2.916a.751.751,0,0,1-.547-.237,3.751,3.751,0,0,0-5.639.2,3.79,3.79,0,0,0-.737,3.229.75.75,0,0,1-.734.9h-.039a13.536,13.536,0,0,1-8.975-4.048,3.818,3.818,0,0,0-.1.87,3.72,3.72,0,0,0,1.664,3.111.75.75,0,0,1-.415,1.375h-.027a5.267,5.267,0,0,1-1.081-.153,3.752,3.752,0,0,0,2.824,2.563.75.75,0,0,1,.039,1.461,5.383,5.383,0,0,1-.98.162,3.759,3.759,0,0,0,2.976,1.558.75.75,0,0,1,.446,1.341,9.689,9.689,0,0,1-4.115,1.89,12.06,12.06,0,0,0,3.893.642,11.9,11.9,0,0,0,12.019-12.019c0-.18,0-.365-.011-.533a.75.75,0,0,1,.308-.656q.2-.145.39-.3l-.207.024a.75.75,0,0,1-.462-1.39q.105-.063.205-.131-.278.071-.558.124A.756.756,0,0,1,5882.638,1099.875Z" transform="translate(-5863.452 -1096.959)" fill="#e6484b"/>
</svg>
